<?xml version="1.0" encoding="UTF-8"?>
<!DOCTYPE svg PUBLIC "-//W3C//DTD SVG 1.1//EN" "http://www.w3.org/Graphics/SVG/1.1/DTD/svg11.dtd">
<svg xmlns="http://www.w3.org/2000/svg" version="1.1" width="512px" height="512px" style="shape-rendering:geometricPrecision; text-rendering:geometricPrecision; image-rendering:optimizeQuality; fill-rule:evenodd; clip-rule:evenodd" xmlns:xlink="http://www.w3.org/1999/xlink">
<g><path style="opacity:0.956" fill="#000000" d="M 21.5,42.5 C 35.1707,42.3334 48.8374,42.5001 62.5,43C 80.5117,47.2454 93.345,57.7454 101,74.5C 104.464,85.6898 107.297,97.0231 109.5,108.5C 235.834,108.333 362.167,108.5 488.5,109C 493.448,110.717 496.115,114.217 496.5,119.5C 482.605,179.808 468.771,240.142 455,300.5C 447.238,321.932 432.071,334.099 409.5,337C 330.474,337.98 251.474,337.646 172.5,336C 154.728,331.227 142.228,320.394 135,303.5C 117.177,231.875 99.5105,160.209 82,88.5C 78.9325,76.4323 71.4325,68.599 59.5,65C 47.8333,64.6667 36.1667,64.3333 24.5,64C 15.6295,61.0209 13.1295,55.1876 17,46.5C 18.3968,44.9297 19.8968,43.5964 21.5,42.5 Z M 115.5,130.5 C 233.833,130.5 352.167,130.5 470.5,130.5C 458.477,185.592 445.977,240.592 433,295.5C 427.877,306.946 419.044,313.446 406.5,315C 331.833,315.667 257.167,315.667 182.5,315C 168.73,313.043 159.563,305.543 155,292.5C 141.515,238.56 128.348,184.56 115.5,130.5 Z"/></g>
<g><path style="opacity:0.946" fill="#000000" d="M 208.5,370.5 C 228.697,368.719 244.53,376.053 256,392.5C 268.791,417.998 264.291,439.831 242.5,458C 218.575,470.702 197.075,467.535 178,448.5C 164.894,429.643 164.227,410.31 176,390.5C 184.468,379.856 195.302,373.189 208.5,370.5 Z M 211.5,392.5 C 233.15,393.302 242.65,404.302 240,425.5C 231.437,443.355 218.27,447.855 200.5,439C 185.445,423.938 186.112,409.605 202.5,396C 205.571,394.704 208.571,393.538 211.5,392.5 Z"/></g>
<g><path style="opacity:0.946" fill="#000000" d="M 351.5,370.5 C 387.809,370.31 405.976,388.31 406,424.5C 402.142,446.023 389.642,459.523 368.5,465C 334.114,467.816 314.78,452.15 310.5,418C 313.008,392.338 326.674,376.505 351.5,370.5 Z M 354.5,392.5 C 376.06,393.22 385.56,404.22 383,425.5C 375.228,442.467 362.728,447.3 345.5,440C 332.945,430.581 330.112,418.748 337,404.5C 341.429,398.375 347.262,394.375 354.5,392.5 Z"/></g>
</svg>
